<?xml version="1.0" standalone="no"?>
<!DOCTYPE svg PUBLIC "-//W3C//DTD SVG 20010904//EN"
 "http://www.w3.org/TR/2001/REC-SVG-20010904/DTD/svg10.dtd">
<svg version="1.0" xmlns="http://www.w3.org/2000/svg"
 width="360.000000pt" height="360.000000pt" viewBox="0 0 360.000000 360.000000"
 preserveAspectRatio="xMidYMid meet">
<metadata>
Created by potrace 1.14, written by Peter Selinger 2001-2017
</metadata>
<g transform="translate(0.000000,360.000000) scale(0.100000,-0.100000)"
fill="#000000" stroke="none">
<path d="M1507 2144 c-1 -1 -29 -5 -62 -8 -90 -10 -123 -23 -205 -82 -108 -77
-135 -100 -221 -187 -68 -69 -79 -76 -87 -60 -8 13 -7 22 4 34 12 14 11 20 -9
50 -23 34 -23 34 -102 34 -65 0 -82 -3 -97 -19 -19 -21 -23 -43 -9 -64 7 -11
124 -51 154 -52 4 0 7 -4 7 -10 0 -5 -12 -10 -26 -10 -55 0 -132 -64 -165
-137 -34 -73 -67 -299 -47 -319 4 -3 2 -18 -2 -34 -4 -16 -6 -31 -3 -34 3 -2
7 -39 8 -82 2 -42 6 -96 10 -119 l5 -43 -52 -12 c-97 -20 -183 -55 -221 -89
-24 -20 -47 -75 -47 -110 0 -47 41 -112 88 -137 73 -41 109 -43 807 -59 538
-13 1553 -2 1879 21 156 10 235 55 255 144 9 40 8 51 -14 95 -21 44 -33 55
-87 82 -35 17 -79 34 -98 39 -19 4 -37 8 -40 9 -3 1 -22 5 -42 9 -31 7 -36 11
-32 29 9 43 16 144 18 272 4 206 -32 353 -102 416 -40 37 -82 59 -112 59 -46
0 -24 19 41 35 65 16 109 42 109 63 0 4 -9 18 -19 31 -16 20 -27 24 -93 25
-81 2 -95 -3 -118 -47 -11 -23 -12 -30 -1 -36 15 -10 11 -46 -4 -41 -5 1 -52
43 -104 92 -103 97 -235 197 -294 221 -20 9 -65 19 -100 23 -51 6 -764 13
-770 8z"/>
</g>
</svg>
